<?xml version="1.0" encoding="UTF-8"?>
<!DOCTYPE svg PUBLIC "-//W3C//DTD SVG 1.1//EN" "http://www.w3.org/Graphics/SVG/1.1/DTD/svg11.dtd">
<svg xmlns="http://www.w3.org/2000/svg" version="1.1" width="718px" height="430px" style="shape-rendering:geometricPrecision; text-rendering:geometricPrecision; image-rendering:optimizeQuality; fill-rule:evenodd; clip-rule:evenodd" xmlns:xlink="http://www.w3.org/1999/xlink">
<g><path style="opacity:1" fill="#fefeff" d="M -0.5,-0.5 C 238.833,-0.5 478.167,-0.5 717.5,-0.5C 717.5,142.833 717.5,286.167 717.5,429.5C 478.167,429.5 238.833,429.5 -0.5,429.5C -0.5,286.167 -0.5,142.833 -0.5,-0.5 Z"/></g>
<g><path style="opacity:1" fill="#cbcdff" d="M 679.5,22.5 C 675.901,21.6561 672.234,21.3227 668.5,21.5C 667.432,20.5655 666.099,20.2322 664.5,20.5C 653.287,18.6707 642.287,19.6707 631.5,23.5C 631.804,22.8501 632.137,22.1835 632.5,21.5C 644.642,18.6212 656.975,17.7879 669.5,19C 673.138,19.7588 676.471,20.9255 679.5,22.5 Z"/></g>
<g><path style="opacity:1" fill="#4244fe" d="M 668.5,21.5 C 672.234,21.3227 675.901,21.6561 679.5,22.5C 681.684,23.2663 684.018,23.9329 686.5,24.5C 687.809,26.2395 687.476,27.5729 685.5,28.5C 685.279,27.2652 684.612,26.2652 683.5,25.5C 678.409,23.9795 673.409,22.6461 668.5,21.5 Z"/></g>
<g><path style="opacity:1" fill="#0804fe" d="M 664.5,20.5 C 666.099,20.2322 667.432,20.5655 668.5,21.5C 673.409,22.6461 678.409,23.9795 683.5,25.5C 684.612,26.2652 685.279,27.2652 685.5,28.5C 684.449,29.2223 683.782,30.2223 683.5,31.5C 680.149,33.8537 677.482,36.8537 675.5,40.5C 673.793,41.8726 672.46,43.5393 671.5,45.5C 669.35,47.7596 667.183,50.0929 665,52.5C 664.517,53.448 664.351,54.448 664.5,55.5C 656.149,66.877 650.482,79.5437 647.5,93.5C 646.85,93.8039 646.183,94.1373 645.5,94.5C 644.67,97.8208 644.003,101.154 643.5,104.5C 642.355,109.704 641.689,115.037 641.5,120.5C 640.449,129.321 639.783,138.321 639.5,147.5C 638.54,152.318 637.207,156.985 635.5,161.5C 633.132,164.91 631.132,168.576 629.5,172.5C 627.808,174.205 626.475,176.205 625.5,178.5C 619.773,184.86 613.44,190.527 606.5,195.5C 602.832,196.061 599.832,197.728 597.5,200.5C 594.5,201.167 591.5,201.833 588.5,202.5C 586.688,202.771 585.022,203.438 583.5,204.5C 584.005,205.919 585.005,206.585 586.5,206.5C 586.611,207.117 586.944,207.617 587.5,208C 591.695,208.332 595.695,209.165 599.5,210.5C 618.659,220.655 631.659,235.989 638.5,256.5C 639.539,268.978 640.539,281.311 641.5,293.5C 642.995,299.453 644.328,305.453 645.5,311.5C 645.927,314.01 646.593,316.343 647.5,318.5C 651.505,329.402 656.338,340.068 662,350.5C 668.265,360.26 675.432,369.26 683.5,377.5C 684.508,379.339 686.008,380.672 688,381.5C 688.483,382.448 688.649,383.448 688.5,384.5C 684.266,385.803 679.933,386.969 675.5,388C 672.854,388.497 670.187,388.664 667.5,388.5C 657.5,388.5 647.5,388.5 637.5,388.5C 635.883,387.962 634.216,387.629 632.5,387.5C 630.077,385.145 627.077,384.145 623.5,384.5C 599.977,374.311 582.644,357.644 571.5,334.5C 569.81,328.215 568.31,321.882 567,315.5C 566.617,314.944 566.117,314.611 565.5,314.5C 565.5,314.167 565.5,313.833 565.5,313.5C 565.666,304.161 565.5,294.827 565,285.5C 564.617,284.944 564.117,284.611 563.5,284.5C 562.606,274.408 561.106,264.408 559,254.5C 558.14,251.916 556.973,249.583 555.5,247.5C 554.463,246.07 553.796,244.403 553.5,242.5C 552.602,238.129 550.935,234.129 548.5,230.5C 544.358,222.167 539.525,214.167 534,206.5C 533.549,203.686 534.382,201.353 536.5,199.5C 540.478,196.927 542.811,193.26 543.5,188.5C 546.752,184.816 549.085,180.483 550.5,175.5C 550.157,173.517 550.824,172.183 552.5,171.5C 553.921,168.706 554.921,165.706 555.5,162.5C 556.301,160.958 556.634,159.292 556.5,157.5C 558.798,154.279 560.132,150.613 560.5,146.5C 563.055,139.183 564.055,131.517 563.5,123.5C 563.5,122.5 563.5,121.5 563.5,120.5C 565.116,109.384 566.449,98.0504 567.5,86.5C 568.11,85.609 568.443,84.609 568.5,83.5C 571.868,77.09 574.868,70.4233 577.5,63.5C 578.167,63.5 578.5,63.1667 578.5,62.5C 580.954,60.7149 582.621,58.3815 583.5,55.5C 586.19,53.8065 588.19,51.4732 589.5,48.5C 589.833,47.5 590.5,46.8333 591.5,46.5C 594.089,45.5806 596.089,43.914 597.5,41.5C 598.585,39.4131 600.251,38.0798 602.5,37.5C 605.586,36.3018 608.252,34.6352 610.5,32.5C 614.382,30.3359 618.382,28.1692 622.5,26C 624.134,25.5065 625.801,25.3398 627.5,25.5C 639.616,22.8193 651.949,21.1526 664.5,20.5 Z"/></g>
<g><path style="opacity:1" fill="#4141fe" d="M 664.5,20.5 C 651.949,21.1526 639.616,22.8193 627.5,25.5C 628.287,23.8958 629.62,23.2291 631.5,23.5C 642.287,19.6707 653.287,18.6707 664.5,20.5 Z"/></g>
<g><path style="opacity:1" fill="#0603fe" d="M 141.5,26.5 C 146.833,26.5 152.167,26.5 157.5,26.5C 157.17,43.0085 157.504,59.3419 158.5,75.5C 181.833,76.8333 205.167,76.8333 228.5,75.5C 229.496,59.3419 229.83,43.0085 229.5,26.5C 234.833,26.5 240.167,26.5 245.5,26.5C 245.5,77.1667 245.5,127.833 245.5,178.5C 240.167,178.5 234.833,178.5 229.5,178.5C 229.831,149.995 229.498,121.662 228.5,93.5C 228.167,93.5 227.833,93.5 227.5,93.5C 204.5,93.5 181.5,93.5 158.5,93.5C 157.502,121.662 157.169,149.995 157.5,178.5C 152.167,178.5 146.833,178.5 141.5,178.5C 141.5,127.833 141.5,77.1667 141.5,26.5 Z"/></g>
<g><path style="opacity:1" fill="#3f4cfe" d="M 141.5,26.5 C 146.975,25.5111 152.642,25.1778 158.5,25.5C 158.5,42.1667 158.5,58.8333 158.5,75.5C 157.504,59.3419 157.17,43.0085 157.5,26.5C 152.167,26.5 146.833,26.5 141.5,26.5 Z"/></g>
<g><path style="opacity:1" fill="#383bfe" d="M 245.5,26.5 C 240.167,26.5 234.833,26.5 229.5,26.5C 229.83,43.0085 229.496,59.3419 228.5,75.5C 228.5,58.8333 228.5,42.1667 228.5,25.5C 234.358,25.1778 240.025,25.5111 245.5,26.5 Z"/></g>
<g><path style="opacity:1" fill="#a1a4ff" d="M 683.5,31.5 C 681.547,35.1203 678.881,38.1203 675.5,40.5C 677.482,36.8537 680.149,33.8537 683.5,31.5 Z"/></g>
<g><path style="opacity:1" fill="#6c6cfe" d="M 610.5,32.5 C 608.252,34.6352 605.586,36.3018 602.5,37.5C 604.484,34.8361 607.151,33.1695 610.5,32.5 Z"/></g>
<g><path style="opacity:1" fill="#6a6ffe" d="M 597.5,41.5 C 596.089,43.914 594.089,45.5806 591.5,46.5C 592.911,44.086 594.911,42.4194 597.5,41.5 Z"/></g>
<g><path style="opacity:1" fill="#9b9dfe" d="M 671.5,45.5 C 669.938,49.3918 667.605,52.7251 664.5,55.5C 664.351,54.448 664.517,53.448 665,52.5C 667.183,50.0929 669.35,47.7596 671.5,45.5 Z"/></g>
<g><path style="opacity:1" fill="#787dfe" d="M 589.5,48.5 C 588.19,51.4732 586.19,53.8065 583.5,55.5C 584.781,52.5526 586.781,50.2193 589.5,48.5 Z"/></g>
<g><path style="opacity:1" fill="#7779fe" d="M 583.5,55.5 C 582.621,58.3815 580.954,60.7149 578.5,62.5C 579.433,59.6298 581.1,57.2964 583.5,55.5 Z"/></g>
<g><path style="opacity:1" fill="#8487ff" d="M 577.5,63.5 C 574.868,70.4233 571.868,77.09 568.5,83.5C 570.341,76.3095 573.341,69.6428 577.5,63.5 Z"/></g>
<g><path style="opacity:1" fill="#6672fe" d="M 451.5,69.5 C 446.167,69.5 440.833,69.5 435.5,69.5C 435.5,76.1667 435.5,82.8333 435.5,89.5C 434.509,82.6866 434.175,75.6866 434.5,68.5C 440.358,68.1778 446.025,68.5111 451.5,69.5 Z"/></g>
<g><path style="opacity:1" fill="#1610fe" d="M 324.5,69.5 C 326.599,70.6118 328.933,71.2785 331.5,71.5C 355.982,81.1362 361.815,97.4695 349,120.5C 341.896,128.303 333.062,132.803 322.5,134C 314.432,134.845 306.432,136.012 298.5,137.5C 292.28,137.957 286.28,138.957 280.5,140.5C 284.929,153.906 294.263,161.406 308.5,163C 320.219,163.664 331.886,163.164 343.5,161.5C 345.156,166.133 346.823,170.8 348.5,175.5C 330.087,180.906 311.754,180.739 293.5,175C 267.174,163.428 256.674,143.261 262,114.5C 266.896,90.2681 281.396,75.1015 305.5,69C 312.014,68.18 318.347,68.3467 324.5,69.5 Z"/></g>
<g><path style="opacity:1" fill="#9f9eff" d="M 324.5,69.5 C 327.228,69.1706 329.562,69.8372 331.5,71.5C 328.933,71.2785 326.599,70.6118 324.5,69.5 Z"/></g>
<g><path style="opacity:1" fill="#140dfe" d="M 435.5,89.5 C 435.5,82.8333 435.5,76.1667 435.5,69.5C 440.833,69.5 446.167,69.5 451.5,69.5C 452.664,105.331 452.831,141.331 452,177.5C 446.384,202.45 431.217,218.284 406.5,225C 400.509,225.499 394.509,225.666 388.5,225.5C 388.5,219.833 388.5,214.167 388.5,208.5C 415.842,210.629 431.342,198.296 435,171.5C 429.674,175.945 423.508,178.445 416.5,179C 390.297,181.125 374.797,169.292 370,143.5C 369.5,118.502 369.333,93.5022 369.5,68.5C 375.167,68.5 380.833,68.5 386.5,68.5C 387.183,93.8262 387.683,119.16 388,144.5C 392.358,159.939 402.524,166.106 418.5,163C 427.096,160.071 432.596,154.237 435,145.5C 435.5,126.836 435.667,108.17 435.5,89.5 Z"/></g>
<g><path style="opacity:1" fill="#fcfcff" d="M 306.5,85.5 C 312.509,85.3338 318.509,85.5005 324.5,86C 337.372,89.9251 340.872,98.0918 335,110.5C 331.847,113.782 328.013,115.948 323.5,117C 308.622,119.505 293.789,122.005 279,124.5C 277.705,110.924 282.538,100.091 293.5,92C 297.771,89.5325 302.104,87.3659 306.5,85.5 Z"/></g>
<g><path style="opacity:1" fill="#3a48ff" d="M 158.5,93.5 C 158.5,122.167 158.5,150.833 158.5,179.5C 152.642,179.822 146.975,179.489 141.5,178.5C 146.833,178.5 152.167,178.5 157.5,178.5C 157.169,149.995 157.502,121.662 158.5,93.5 Z"/></g>
<g><path style="opacity:1" fill="#e3e5ff" d="M 158.5,93.5 C 181.5,93.5 204.5,93.5 227.5,93.5C 205.006,94.4975 182.339,94.8308 159.5,94.5C 159.831,123.005 159.498,151.338 158.5,179.5C 158.5,150.833 158.5,122.167 158.5,93.5 Z"/></g>
<g><path style="opacity:1" fill="#3135fe" d="M 228.5,93.5 C 229.498,121.662 229.831,149.995 229.5,178.5C 234.833,178.5 240.167,178.5 245.5,178.5C 240.025,179.489 234.358,179.822 228.5,179.5C 228.5,150.833 228.5,122.167 228.5,93.5 Z"/></g>
<g><path style="opacity:1" fill="#696dfe" d="M 647.5,93.5 C 645.98,96.5787 645.147,99.912 645,103.5C 644.617,104.056 644.117,104.389 643.5,104.5C 644.003,101.154 644.67,97.8208 645.5,94.5C 646.183,94.1373 646.85,93.8039 647.5,93.5 Z"/></g>
<g><path style="opacity:1" fill="#bfc2fe" d="M 564.5,102.5 C 564.167,108.5 563.833,114.5 563.5,120.5C 563.5,121.5 563.5,122.5 563.5,123.5C 563.167,123.5 562.833,123.5 562.5,123.5C 562.334,116.825 562.5,110.158 563,103.5C 563.383,102.944 563.883,102.611 564.5,102.5 Z"/></g>
<g><path style="opacity:1" fill="#5a5efe" d="M 567.5,86.5 C 566.449,98.0504 565.116,109.384 563.5,120.5C 563.833,114.5 564.167,108.5 564.5,102.5C 564.335,99.4816 564.502,96.4816 565,93.5C 566.043,91.1671 566.876,88.8337 567.5,86.5 Z"/></g>
<g><path style="opacity:1" fill="#797cfe" d="M 641.5,120.5 C 641.666,128.507 641.5,136.507 641,144.5C 640.768,145.737 640.268,146.737 639.5,147.5C 639.783,138.321 640.449,129.321 641.5,120.5 Z"/></g>
<g><path style="opacity:1" fill="#7074fe" d="M 562.5,123.5 C 562.833,123.5 563.167,123.5 563.5,123.5C 564.055,131.517 563.055,139.183 560.5,146.5C 561.167,138.833 561.833,131.167 562.5,123.5 Z"/></g>
<g><path style="opacity:1" fill="#bebfff" d="M 298.5,137.5 C 292.82,139.6 286.82,140.6 280.5,140.5C 286.28,138.957 292.28,137.957 298.5,137.5 Z"/></g>
<g><path style="opacity:1" fill="#9699fe" d="M 560.5,146.5 C 560.132,150.613 558.798,154.279 556.5,157.5C 557.423,154.223 558.256,150.89 559,147.5C 559.383,146.944 559.883,146.611 560.5,146.5 Z"/></g>
<g><path style="opacity:1" fill="#8588ff" d="M 635.5,161.5 C 634.609,165.898 632.609,169.565 629.5,172.5C 631.132,168.576 633.132,164.91 635.5,161.5 Z"/></g>
<g><path style="opacity:1" fill="#9195ff" d="M 555.5,162.5 C 554.921,165.706 553.921,168.706 552.5,171.5C 552.145,167.923 553.145,164.923 555.5,162.5 Z"/></g>
<g><path style="opacity:1" fill="#a7a8ff" d="M 629.5,172.5 C 629.316,175.337 627.982,177.337 625.5,178.5C 626.475,176.205 627.808,174.205 629.5,172.5 Z"/></g>
<g><path style="opacity:1" fill="#7579fe" d="M 550.5,175.5 C 549.085,180.483 546.752,184.816 543.5,188.5C 545.281,183.784 547.614,179.451 550.5,175.5 Z"/></g>
<g><path style="opacity:1" fill="#5a5afe" d="M 543.5,188.5 C 542.811,193.26 540.478,196.927 536.5,199.5C 538.703,195.697 541.036,192.031 543.5,188.5 Z"/></g>
<g><path style="opacity:1" fill="#9a9bfe" d="M 606.5,195.5 C 603.793,197.635 600.793,199.302 597.5,200.5C 599.832,197.728 602.832,196.061 606.5,195.5 Z"/></g>
<g><path style="opacity:1" fill="#8b90fe" d="M 588.5,202.5 C 587.942,203.79 586.942,204.623 585.5,205C 586.056,205.383 586.389,205.883 586.5,206.5C 585.005,206.585 584.005,205.919 583.5,204.5C 585.022,203.438 586.688,202.771 588.5,202.5 Z"/></g>
<g><path style="opacity:1" fill="#a7aaff" d="M 586.5,206.5 C 591.32,206.738 595.654,208.071 599.5,210.5C 595.695,209.165 591.695,208.332 587.5,208C 586.944,207.617 586.611,207.117 586.5,206.5 Z"/></g>
<g><path style="opacity:1" fill="#a4a8fe" d="M 548.5,230.5 C 550.935,234.129 552.602,238.129 553.5,242.5C 551.065,238.871 549.398,234.871 548.5,230.5 Z"/></g>
<g><path style="opacity:1" fill="#6368fe" d="M 638.5,256.5 C 641.175,268.536 642.175,280.869 641.5,293.5C 640.539,281.311 639.539,268.978 638.5,256.5 Z"/></g>
<g><path style="opacity:1" fill="#0f0bfe" d="M 150.5,272.5 C 155.5,272.5 160.5,272.5 165.5,272.5C 165.333,287.504 165.5,302.504 166,317.5C 177.875,306.845 190.708,305.678 204.5,314C 211.402,319.632 215.902,326.798 218,335.5C 218.5,357.831 218.667,380.164 218.5,402.5C 213.5,402.5 208.5,402.5 203.5,402.5C 203.667,380.831 203.5,359.164 203,337.5C 200.282,328.284 194.115,323.284 184.5,322.5C 174.336,323.831 168.169,329.498 166,339.5C 165.5,360.497 165.333,381.497 165.5,402.5C 160.5,402.5 155.5,402.5 150.5,402.5C 150.5,359.167 150.5,315.833 150.5,272.5 Z"/></g>
<g><path style="opacity:1" fill="#110dfe" d="M 325.5,272.5 C 330.5,272.5 335.5,272.5 340.5,272.5C 340.333,305.502 340.5,338.502 341,371.5C 342.28,380.114 347.114,385.614 355.5,388C 359.821,388.499 364.154,388.666 368.5,388.5C 368.5,393.5 368.5,398.5 368.5,403.5C 352.345,406.603 339.512,401.603 330,388.5C 328.803,385.911 327.803,383.244 327,380.5C 325.526,344.549 325.026,308.549 325.5,272.5 Z"/></g>
<g><path style="opacity:1" fill="#9598ff" d="M 555.5,247.5 C 556.973,249.583 558.14,251.916 559,254.5C 561.106,264.408 562.606,274.408 563.5,284.5C 564.307,290.464 564.64,296.464 564.5,302.5C 563.066,293.706 562.233,284.706 562,275.5C 559.725,266.143 557.559,256.809 555.5,247.5 Z"/></g>
<g><path style="opacity:1" fill="#4b52fe" d="M 563.5,284.5 C 564.117,284.611 564.617,284.944 565,285.5C 565.5,294.827 565.666,304.161 565.5,313.5C 564.518,310.038 564.185,306.371 564.5,302.5C 564.64,296.464 564.307,290.464 563.5,284.5 Z"/></g>
<g><path style="opacity:1" fill="#120dfe" d="M 11.5,308.5 C 16.7616,308.195 21.9283,308.529 27,309.5C 33.3305,333.16 39.6638,356.826 46,380.5C 53.1257,356.788 60.4591,333.122 68,309.5C 72.6667,308.167 77.3333,308.167 82,309.5C 89.8681,332.771 97.5348,356.104 105,379.5C 111.741,356.101 117.574,332.434 122.5,308.5C 127.5,308.5 132.5,308.5 137.5,308.5C 129.848,339.291 121.682,369.958 113,400.5C 108.482,402.407 103.648,403.074 98.5,402.5C 90.833,378.499 83.1663,354.499 75.5,330.5C 67.8502,354.093 60.3502,377.759 53,401.5C 48.2633,402.469 43.43,402.803 38.5,402.5C 29.7533,371.104 20.7533,339.771 11.5,308.5 Z"/></g>
<g><path style="opacity:1" fill="#1610fe" d="M 265.5,308.5 C 278.88,306.678 290.88,309.844 301.5,318C 303.712,320.921 305.545,324.088 307,327.5C 308.29,349.45 308.957,371.45 309,393.5C 309.849,396.521 310.683,399.521 311.5,402.5C 306.489,402.666 301.489,402.499 296.5,402C 294.993,397.679 293.993,393.179 293.5,388.5C 277.225,404.054 259.225,406.554 239.5,396C 230.294,385.405 229.127,373.905 236,361.5C 239.358,357.241 243.525,354.074 248.5,352C 259.114,349.744 269.781,347.744 280.5,346C 295.003,342.862 297.336,335.862 287.5,325C 276.715,320.161 266.049,320.494 255.5,326C 251.25,328.374 247.084,330.874 243,333.5C 240.308,330.308 237.808,326.975 235.5,323.5C 239.94,318.771 245.274,315.271 251.5,313C 256.254,311.358 260.921,309.858 265.5,308.5 Z"/></g>
<g><path style="opacity:1" fill="#120dfe" d="M 409.5,308.5 C 424.774,306.755 437.608,311.422 448,322.5C 455.363,341.083 449.863,354.249 431.5,362C 417.303,365.006 402.969,367.172 388.5,368.5C 390.808,379.206 397.474,385.706 408.5,388C 419.152,390.178 429.652,389.678 440,386.5C 442.361,389.888 444.194,393.554 445.5,397.5C 426.341,405.083 407.674,403.917 389.5,394C 374.648,382.093 368.815,366.593 372,347.5C 376.906,327.096 389.406,314.096 409.5,308.5 Z"/></g>
<g><path style="opacity:1" fill="#7476fe" d="M 645.5,311.5 C 646.117,311.611 646.617,311.944 647,312.5C 647.495,314.473 647.662,316.473 647.5,318.5C 646.593,316.343 645.927,314.01 645.5,311.5 Z"/></g>
<g><path style="opacity:1" fill="#fbfbff" d="M 410.5,322.5 C 417.391,321.901 424.058,322.735 430.5,325C 437.08,330.443 438.246,336.943 434,344.5C 429.492,348.169 424.325,350.336 418.5,351C 407.535,352.827 396.535,354.327 385.5,355.5C 386.717,338.968 395.05,327.968 410.5,322.5 Z"/></g>
<g><path style="opacity:1" fill="#7c81fe" d="M 565.5,314.5 C 566.117,314.611 566.617,314.944 567,315.5C 568.31,321.882 569.81,328.215 571.5,334.5C 568.128,328.378 566.128,321.711 565.5,314.5 Z"/></g>
<g><path style="opacity:1" fill="#fcfcff" d="M 291.5,354.5 C 295.809,371.239 289.476,382.406 272.5,388C 266.903,389.456 261.237,389.789 255.5,389C 244.36,383.187 242.693,375.353 250.5,365.5C 253.715,363.726 257.048,362.226 260.5,361C 271.213,360.025 281.546,357.859 291.5,354.5 Z"/></g>
<g><path style="opacity:1" fill="#868dfe" d="M 623.5,384.5 C 627.077,384.145 630.077,385.145 632.5,387.5C 629.294,386.921 626.294,385.921 623.5,384.5 Z"/></g>
<g><path style="opacity:1" fill="#b0b2ff" d="M 683.5,377.5 C 688.161,378.165 690.161,380.832 689.5,385.5C 682.519,388.434 675.186,389.767 667.5,389.5C 667.5,389.167 667.5,388.833 667.5,388.5C 670.187,388.664 672.854,388.497 675.5,388C 679.933,386.969 684.266,385.803 688.5,384.5C 688.649,383.448 688.483,382.448 688,381.5C 686.008,380.672 684.508,379.339 683.5,377.5 Z"/></g>
<g><path style="opacity:1" fill="#5b61fe" d="M 637.5,388.5 C 647.5,388.5 657.5,388.5 667.5,388.5C 667.5,388.833 667.5,389.167 667.5,389.5C 659.167,390.833 650.833,390.833 642.5,389.5C 640.585,389.784 638.919,389.451 637.5,388.5 Z"/></g>
<g><path style="opacity:1" fill="#bec2fe" d="M 642.5,389.5 C 650.833,390.833 659.167,390.833 667.5,389.5C 666.737,390.268 665.737,390.768 664.5,391C 657.833,391.667 651.167,391.667 644.5,391C 643.584,390.722 642.918,390.222 642.5,389.5 Z"/></g>
</svg>
