<?xml version="1.0" encoding="UTF-8"?>
<svg width="142px" height="23px" viewBox="0 0 142 23" version="1.1" xmlns="http://www.w3.org/2000/svg" xmlns:xlink="http://www.w3.org/1999/xlink">
    <title>和鲸logo</title>
    <g id="和鲸官网" stroke="none" stroke-width="1" fill="none" fill-rule="evenodd">
        <g id="客户案例" transform="translate(-180.000000, -2578.000000)" fill="#0000ff">
            <g id="编组-5" transform="translate(0.000000, 2488.000000)">
                <g id="和鲸logo" transform="translate(180.000000, 90.000000)">
                    <path d="M139.0685,12.9456 L139.0595,12.9456 C139.0595,11.7516 138.4635,10.6976 137.5505,10.0656 C137.5435,10.0606 137.5375,10.0556 137.5295,10.0506 C137.0055,9.6926 136.5225,9.5316 135.8645,9.4406 C136.4955,9.3536 137.0075,9.1916 137.5335,8.8346 C137.5405,8.8296 137.5475,8.8236 137.5545,8.8196 C138.4675,8.1866 139.0655,7.1326 139.0655,5.9386 L139.0675,5.9386 C139.0875,3.7936 140.0105,1.8646 141.4745,0.5126 C140.9745,0.3266 140.4325,0.2246 139.8675,0.2246 C138.1925,0.2246 136.7275,1.1176 135.9205,2.4536 C135.7795,2.6866 135.6585,2.9346 135.5595,3.1936 C135.3655,3.7026 135.2585,4.2556 135.2585,4.8336 L135.2585,4.8576 L135.2555,4.8576 C135.2555,6.3256 134.8335,7.6946 134.1015,8.8506 C134.0585,8.9196 134.0135,8.9886 133.9665,9.0556 C133.8795,9.1866 133.7845,9.3146 133.6875,9.4406 L133.6885,9.4416 C133.7855,9.5656 133.8785,9.6936 133.9655,9.8246 C134.0125,9.8916 134.0575,9.9606 134.1005,10.0286 C134.8335,11.1836 135.2555,12.5546 135.2555,14.0236 L135.2555,14.0496 L135.2585,14.0496 C135.2585,14.6276 135.3655,15.1806 135.5595,15.6906 C135.6585,15.9486 135.7795,16.1956 135.9205,16.4286 C136.7265,17.7656 138.1925,18.6586 139.8675,18.6586 C140.4525,18.6586 141.0115,18.5496 141.5275,18.3496 C140.0485,17.0116 139.1075,15.0886 139.0685,12.9456" id="Fill-1"></path>
                    <path d="M125.9992,16.0296 C125.9992,16.6186 125.5202,17.0976 124.9312,17.0976 L124.8752,17.0976 L124.8752,18.6406 L124.9312,18.6406 C126.3702,18.6406 127.5412,17.4686 127.5412,16.0296 L127.5412,11.0706 L125.9992,11.0706 L125.9992,16.0296 Z" id="Fill-3"></path>
                    <polygon id="Fill-5" points="126.7326 0.0003 125.3346 0.6513 125.7836 1.6133 121.4066 1.6133 121.4066 3.1563 131.6936 3.1563 131.6936 1.6133 127.4856 1.6133"></polygon>
                    <polygon id="Fill-7" points="112.9543 16.7815 113.0883 18.3175 120.9613 17.6295 120.8273 16.0925"></polygon>
                    <path d="M93.8781,7.7317 C93.8181,13.2567 92.6971,16.6867 92.0331,18.2397 L92.0041,18.3087 L93.6041,18.4487 L93.6191,18.4127 C94.0281,17.4497 95.3671,13.8337 95.3991,7.7327 L95.3991,7.6767 L93.8781,7.6767 L93.8781,7.7317 Z" id="Fill-9"></path>
                    <polygon id="Fill-11" points="98.2551 2.1184 101.8661 1.8024 101.7321 0.2654 93.1431 1.0164 93.2761 2.5544 96.7121 2.2534 96.7121 4.9004 92.6481 4.9004 92.6481 6.4434 96.7121 6.4434 96.7121 18.6404 98.2551 18.6404 98.2551 6.4434 102.0601 6.4434 102.0601 4.9004 98.2551 4.9004"></polygon>
                    <path d="M114.5295,10.6927 L116.1865,10.6927 L116.1865,13.7297 L114.9155,13.7297 C114.7025,13.7297 114.5295,13.5567 114.5295,13.3437 L114.5295,10.6927 Z M114.5295,6.6087 C114.5295,6.3967 114.7025,6.2227 114.9155,6.2227 L118.8895,6.2227 C119.1025,6.2227 119.2755,6.3967 119.2755,6.6087 L119.2755,13.3437 C119.2755,13.5567 119.1025,13.7297 118.8895,13.7297 L117.6195,13.7297 L117.6195,10.6927 L118.7755,10.6927 L118.7755,9.2597 L117.6195,9.2597 L117.6195,6.7227 L116.1865,6.7227 L116.1865,9.2597 L114.5295,9.2597 L114.5295,6.6087 Z M114.3645,15.2727 L119.4405,15.2727 C120.2005,15.2727 120.8175,14.6547 120.8175,13.8957 L120.8175,6.0577 C120.8175,5.2977 120.2005,4.6807 119.4405,4.6807 L119.1815,4.6807 L120.6115,1.6137 L115.6145,1.6137 L116.0625,0.6517 L114.6655,0.0007 L113.1935,3.1567 L118.1905,3.1567 L117.4795,4.6807 L114.3645,4.6807 C113.6045,4.6807 112.9875,5.2977 112.9875,6.0577 L112.9875,13.8957 C112.9875,14.6547 113.6045,15.2727 114.3645,15.2727 L114.3645,15.2727 Z" id="Fill-13"></path>
                    <path d="M129.6525,8.6419 C129.6525,8.8549 129.4795,9.0279 129.2675,9.0279 L123.8335,9.0279 C123.6205,9.0279 123.4475,8.8549 123.4475,8.6419 L123.4475,6.0579 C123.4475,5.8449 123.6205,5.6719 123.8335,5.6719 L129.2675,5.6719 C129.4795,5.6719 129.6525,5.8449 129.6525,6.0579 L129.6525,8.6419 Z M129.8185,4.1299 L123.2825,4.1299 C122.5225,4.1299 121.9045,4.7469 121.9045,5.5069 L121.9045,9.1929 C121.9045,9.9529 122.5225,10.5699 123.2825,10.5699 L129.8185,10.5699 C130.5785,10.5699 131.1955,9.9529 131.1955,9.1929 L131.1955,5.5069 C131.1955,4.7469 130.5785,4.1299 129.8185,4.1299 L129.8185,4.1299 Z" id="Fill-15"></path>
                    <path d="M109.1008,15.177 C109.1008,15.633 108.7298,16.003 108.2748,16.003 L105.6258,16.003 C105.1698,16.003 104.7998,15.633 104.7998,15.177 L104.7998,4.093 C104.7998,3.637 105.1698,3.266 105.6258,3.266 L108.2748,3.266 C108.7298,3.266 109.1008,3.637 109.1008,4.093 L109.1008,15.177 Z M108.4948,1.614 L105.4058,1.614 C104.1608,1.614 103.1468,2.626 103.1468,3.872 L103.1468,15.398 C103.1468,16.643 104.1608,17.656 105.4058,17.656 L108.4948,17.656 C109.7408,17.656 110.7528,16.643 110.7528,15.398 L110.7528,3.872 C110.7528,2.626 109.7408,1.614 108.4948,1.614 L108.4948,1.614 Z" id="Fill-17"></path>
                    <polygon id="Fill-19" points="99.5617 7.677 100.5047 18.457 102.0407 18.323 101.1107 7.677"></polygon>
                    <path d="M122.9582,11.7757 C122.9022,14.5767 122.0162,17.2807 121.9142,17.5807 L121.8922,17.6467 L123.4562,17.7837 L123.4702,17.7417 C123.7062,17.0187 124.4762,14.4527 124.4812,11.7777 L124.4812,11.7217 L122.9602,11.7217 L122.9582,11.7757 Z" id="Fill-21"></path>
                    <polygon id="Fill-23" points="128.9025 11.722 129.4435 17.899 130.9795 17.765 130.4515 11.722"></polygon>
                    <path d="M69.1525,12.1546 C69.1525,13.3996 68.4445,14.4206 67.3565,15.0366 L67.3355,15.0466 C66.6125,15.4226 65.8615,15.5636 65.1995,15.5636 C64.5565,15.5636 64.0405,15.3936 63.7055,15.0716 C63.3625,14.7426 63.1885,14.3516 63.1885,13.9106 C63.1885,13.4056 63.3605,13.0376 63.7005,12.6736 C64.0425,12.3086 64.7435,12.0626 65.8355,11.9226 C66.7345,11.7896 67.3845,11.6716 67.7675,11.5706 C68.0475,11.4986 68.3355,11.4166 68.6245,11.3286 L69.1525,11.1676 L69.1525,12.1546 Z M70.9275,15.0446 L70.9275,9.3166 C70.9275,8.1416 70.6175,7.2176 69.8755,6.5686 C69.1625,5.9466 67.9585,5.4366 66.1905,5.5756 C64.4855,5.7106 62.6935,6.5816 61.9265,7.3536 L62.8655,8.6546 C63.5785,8.1116 65.0385,7.1566 66.6315,7.1506 C67.4945,7.1466 68.1965,7.3686 68.6085,7.7626 C69.0535,8.1906 69.2495,8.7126 69.1435,9.1946 C69.0615,9.5726 68.6565,9.8636 67.9375,10.0606 C67.1865,10.2666 66.3095,10.4666 65.3245,10.5736 C64.0675,10.7106 63.3475,10.9286 62.6255,11.4996 C61.8385,12.1206 61.5065,13.1266 61.5065,14.0986 C61.5065,15.0796 61.7985,15.7756 62.5085,16.3416 C63.1925,16.8876 64.0915,17.1226 64.9875,17.1226 C65.7445,17.1226 66.4755,16.9886 67.1625,16.7246 C67.6645,16.5326 68.1185,16.2626 68.5115,15.9256 L69.2215,15.3216 L69.1925,16.2396 C69.1925,16.3946 69.1815,16.7536 69.5905,17.1226 L71.4095,17.1226 C70.9005,16.2156 70.9235,15.1716 70.9275,15.0446 L70.9275,15.0446 Z" id="Fill-25"></path>
                    <polygon id="Fill-27" points="9.1203 6.3597 1.7563 6.3597 1.7563 1.0707 0.0003 1.0707 0.0003 6.3597 0.0003 8.1167 0.0003 17.1227 1.7563 17.1227 1.7563 8.1167 9.1203 8.1167 9.1203 17.1227 10.8763 17.1227 10.8763 8.1167 10.8763 6.3597 10.8763 1.0707 9.1203 1.0707"></polygon>
                    <polygon id="Fill-29" points="45.9016 14.511 42.9636 5.575 41.2996 5.575 38.5706 14.515 36.1856 5.575 34.3086 5.575 37.6856 17.122 39.4016 17.122 42.1986 8.093 45.0826 17.122 46.7616 17.122 49.9626 5.575 48.0786 5.575"></polygon>
                    <path d="M30.6389,5.5755 L30.7269,13.0315 C30.7269,14.4255 29.5969,15.5545 28.2029,15.5545 C26.8099,15.5545 25.6809,14.4255 25.6809,13.0315 L25.5919,5.5755 L23.7879,5.5755 L23.8759,13.1395 C23.8759,15.3415 25.6609,17.1265 27.8639,17.1265 C28.7119,17.1265 29.5659,16.9295 29.9739,16.7505 C30.3819,16.5705 30.7379,16.2265 30.7379,16.2265 C30.6819,16.6665 30.5679,17.1315 30.5679,17.1315 C30.2659,18.3545 29.3369,20.2025 26.5029,20.2025 L25.8259,20.2025 L25.8259,22.0065 L26.2529,22.0065 C29.7199,22.0065 32.5309,19.4005 32.5309,15.9335 L32.5309,14.0045 L32.4429,5.5755 L30.6389,5.5755 Z" id="Fill-31"></path>
                    <path d="M55.8537,5.5755 C54.7927,5.5755 53.7807,6.1665 53.2807,6.7395 L53.2807,1.0705 L51.4627,1.0705 L51.4627,17.1225 L53.3407,17.1225 L53.3407,9.7765 C53.3407,8.5145 54.3277,7.3615 55.5887,7.3165 C56.9137,7.2695 57.9967,8.1185 57.9967,9.7215 L57.9967,17.1225 L59.8137,17.1225 L59.8137,9.7515 C59.8137,7.3035 58.1607,5.5755 55.8537,5.5755" id="Fill-33"></path>
                    <path d="M80.5187,11.4036 C80.4157,9.3266 81.7697,7.9136 83.3007,7.4156 C83.6647,7.2986 84.0387,7.2386 84.4147,7.2386 C85.1347,7.2386 85.6237,7.3386 86.0017,7.5636 C86.4297,7.8186 86.7697,8.2726 86.8117,8.6436 C86.9267,9.6706 86.3667,10.3976 85.2737,10.6386 C84.4057,10.8306 82.5007,11.1156 81.0577,11.3206 L80.5187,11.4036 Z M85.6927,12.2556 C87.6687,11.8186 88.8117,10.3346 88.6027,8.4726 C88.5047,7.6096 87.9297,6.8046 87.0217,6.2636 C86.2677,5.8136 85.3697,5.5756 84.4237,5.5756 C83.8387,5.5756 83.2597,5.6676 82.7037,5.8476 C81.3287,6.2946 80.1917,7.2096 79.5037,8.4246 C78.7067,9.8326 78.5477,11.5826 79.0467,13.4866 C79.4087,14.8616 80.4627,15.7836 81.3167,16.2586 C82.3587,16.8386 83.6937,17.1196 84.8247,17.1226 L84.8557,17.1226 C86.0867,17.1226 87.3507,16.8606 87.9567,16.6516 L87.2747,15.2286 C87.2477,15.2336 86.5787,15.3656 86.5427,15.3716 C85.9237,15.4696 85.3407,15.5206 84.8107,15.5206 C82.1487,15.5206 81.0287,14.1786 80.7447,13.0466 L81.2567,12.9736 C82.4867,12.7996 84.6977,12.4746 85.6927,12.2556 L85.6927,12.2556 Z" id="Fill-35"></path>
                    <path d="M14.2424,11.4036 C14.1404,9.3266 15.4944,7.9136 17.0254,7.4156 C17.3884,7.2986 17.7634,7.2386 18.1384,7.2386 C18.8594,7.2386 19.3484,7.3386 19.7254,7.5636 C20.1534,7.8186 20.4944,8.2726 20.5364,8.6436 C20.6514,9.6706 20.0914,10.3976 18.9984,10.6386 C18.1304,10.8306 16.2254,11.1156 14.7824,11.3206 L14.2424,11.4036 Z M19.4164,12.2556 C21.3934,11.8186 22.5354,10.3346 22.3264,8.4726 C22.2294,7.6096 21.6544,6.8046 20.7464,6.2636 C19.9924,5.8136 19.0944,5.5756 18.1484,5.5756 C17.5634,5.5756 16.9844,5.6676 16.4284,5.8476 C15.0534,6.2946 13.9164,7.2096 13.2274,8.4246 C12.4304,9.8326 12.2724,11.5826 12.7714,13.4866 C13.1324,14.8616 14.1874,15.7836 15.0414,16.2586 C16.0834,16.8386 17.4184,17.1196 18.5494,17.1226 L18.5804,17.1226 C19.8114,17.1226 21.0754,16.8606 21.6814,16.6516 L20.9984,15.2286 C20.9714,15.2336 20.3034,15.3656 20.2664,15.3716 C19.6474,15.4696 19.0654,15.5206 18.5354,15.5206 C15.8724,15.5206 14.7534,14.1786 14.4694,13.0466 L14.9804,12.9736 C16.2114,12.7996 18.4224,12.4746 19.4164,12.2556 L19.4164,12.2556 Z" id="Fill-37"></path>
                    <path d="M74.9289,13.0169 L74.9179,2.4879 L74.9179,1.0709 L73.1219,1.0709 L73.1219,13.4989 C73.1219,15.5439 74.7929,17.2069 76.8479,17.2069 L78.4159,17.2069 L78.4159,15.4229 L77.3469,15.4229 C76.0149,15.4229 74.9299,14.3439 74.9289,13.0169" id="Fill-39"></path>
                </g>
            </g>
        </g>
    </g>
</svg>