<?xml version="1.0" standalone="yes"?>
<svg xmlns="http://www.w3.org/2000/svg" width="1081" height="924">
<path style="fill:#0d1945; stroke:none;" d="M328 161C329.481 165.038 334.291 169.723 334.391 173.961C334.496 178.398 320.407 190.212 316.04 189.408C306.291 187.613 302.824 167.082 294.535 162.028C290.427 159.523 282.65 161 278 161L236 161C242.162 177.256 256.872 192.622 266.656 207C269.06 210.533 277.811 219.871 276.402 224.335C274.879 229.16 266.602 233.735 263 237.089C251.97 247.36 240.853 257.587 229.996 268.04C195.285 301.462 163.643 338.214 133.804 376C118.232 395.719 103.905 416.71 90.5756 438C48.1572 505.751 14.432 582.447 8.91049 663C5.40443 714.15 12.7045 764.646 43.8843 807C55.727 823.087 69.417 837.315 85 849.8C104.54 865.455 127.291 877.755 151 885.83C181.667 896.275 214.592 902 247 902C305.58 902 361.499 892.412 418 877.266C463.815 864.985 508.617 847.902 552 828.861C578.475 817.241 606.57 805.567 631 790L631 789C602.03 796.984 574.295 814.2 546 824.772C469.545 853.34 387.185 876.638 305 873.039C248.475 870.564 190.523 855.046 150.049 812.907C50.4767 709.237 108.897 546.609 169.27 438C181.283 416.389 194.246 395.583 207.924 375C228.282 344.366 250.706 315.246 274.247 287C279.872 280.25 285.679 273.648 291.425 267C293.502 264.598 296.543 260.103 299.96 259.631C305.047 258.929 311.268 272.404 313.667 276C325.551 293.817 338.079 311.205 350.001 329C389.3 387.66 428.905 446.486 469.859 504C481.318 520.093 492.36 536.57 503.333 553C506.596 557.885 514.98 565.896 514.98 572C514.98 579.47 503.366 591.235 499 597C483.547 617.401 468.449 638.315 450.921 657.039C397.546 714.057 339.571 763.537 268 796.309C242.678 807.903 212.033 821.556 184 824L184 826C320.567 826 456.987 790.043 561 697.166C584.342 676.323 609.324 652.689 626 626L627 626L722.667 767L751.141 809L763.184 824.821L779 826L821 825C809.391 800.461 789.448 777.375 774.026 755C747.282 716.198 721.169 676.961 694.656 638C685.558 624.63 676.521 611.173 667.141 598C664.106 593.737 657.083 586.494 657.275 581C657.532 573.615 666.393 562.419 671 557L713.495 620L799.656 746L836.656 800L854.093 824.397L871 826L912 826L898.67 804L866.508 757L752.656 590L713.656 533L699.121 510L713 484L731.72 509L770.026 565L894.667 747L932.33 802L949.104 824.972L965 826L1007 825C1000.98 812.28 991.011 800.585 983.026 789C968.578 768.04 954.391 746.901 939.86 726C897.677 665.323 856.231 604.096 814.656 543C797.84 518.288 780.582 493.871 764 469C758.909 461.364 746.231 449.139 745.031 440C744.177 433.5 755.506 422.094 759.141 417C774.238 395.847 789.999 375.169 806.389 355C875.596 269.837 958.402 185.294 1069 160L1069 159C1035.78 154.802 1001.52 160.996 969 167.551C885.936 184.295 805.935 224.722 740 277.449C711.936 299.892 685.437 324.687 661.745 351.714C655.04 359.364 648.548 367.145 642.084 375C640.146 377.355 637.304 382.857 634.003 383.369C629.181 384.117 621.69 368.534 619.333 365C606.116 345.184 592.256 325.785 579.001 306C555.483 270.897 531.517 236.101 507.999 201C501.489 191.283 494.926 181.528 488.141 172C485.847 168.778 483.456 163.276 479.674 161.603C474.963 159.519 467.083 161 462 161L422 161C433.473 185.252 452.798 207.879 467.975 230C495.799 270.554 523.628 311.141 551.001 352C563.109 370.074 575.598 387.897 587.667 406C591.479 411.719 600.984 420.973 601.303 428C601.668 436.043 590.473 445.188 588 453C581.787 449.825 577.92 441.65 574.026 436C564.646 422.391 555.729 408.466 546.141 395C508.253 341.791 472.404 287.003 435.656 233C424.51 216.621 412.988 200.482 402 184C399.471 180.207 390.821 171.161 391.73 166.424C392.584 161.974 399.8 157.522 403 154.715C414.008 145.059 424.874 135.252 436 125.729C480.8 87.3849 528.588 45.2591 580 16L562 24.1497L518 50.1389L402 126.025L372 147.793L354 160.297L328 161z"/>
<path style="fill:#ffffff; stroke:none;" d="M353 201C348.639 205.361 336.631 213.587 336.113 220C335.716 224.923 342.731 232.096 345.333 236C354.512 249.768 363.871 263.49 373.424 277C414.433 334.989 454.469 393.995 493.999 453C506.335 471.413 518.876 489.678 531.344 508C533.755 511.543 540.275 524.793 544.989 524.793C550.113 524.793 559.33 505.551 558.642 501C557.738 495.017 551.368 488.85 548.026 484C539.119 471.078 530.485 457.975 521.656 445C484.387 390.232 446.079 336.119 409.333 281C397.017 262.525 384.438 244.201 371.72 226C365.974 217.777 361.014 207.185 353 201z"/>
<path style="fill:#000000; stroke:none;" d="M633.667 787.333L634.333 787.667L633.667 787.333z"/>
</svg>
