<?xml version="1.0" standalone="yes"?>
<svg xmlns="http://www.w3.org/2000/svg" width="1600" height="700">
<path style="fill:#000000; stroke:none;" d="M42 78L35 119L138 119C122.795 199.703 105.348 281.546 95 363L153 363L196 119L300 119L307 78L42 78M1458 113L1449 168L1383 168L1400.86 194L1410.04 204.397L1442 205L1414 363L1456 363C1459.89 363 1468.06 364.54 1471.26 361.972C1473.71 360.006 1473.61 354.842 1474 352C1475.16 343.647 1476.93 335.304 1478.42 327C1483.77 297.35 1488.49 267.575 1494.2 238C1495.66 230.408 1495.26 212.162 1500.74 206.603C1504.2 203.097 1514.45 205 1519 205L1572 205C1561.6 191.408 1543.37 180.896 1530 170.2C1506.49 151.391 1483.52 128.947 1458 113M418 304C406.768 309.312 396.681 316.173 385 320.796C353.237 333.367 290.303 341.129 274.951 300C272.449 293.295 273 286.02 273 279L428 279C432.926 260.575 436.465 243.138 433.7 224C427.101 178.329 386.575 164 346 164C287.025 164 227.574 203.525 219.289 265C217.671 277.004 217.408 289.029 219.435 301C229.623 361.173 297.141 371.154 347 366.169C363.299 364.539 379.783 361.249 395 354.989C399.523 353.129 406.922 351.314 410.062 347.363C412.682 344.065 412.554 338.005 413.25 334C414.967 324.117 417.569 314.038 418 304M479 164C476.116 231.162 452.311 296.268 447 363L505 363C508.918 332.66 515.093 302.015 520.999 272C523.664 258.459 523.981 242.857 531.761 231C549.749 203.587 606.693 186.51 617.101 230C620.891 245.838 614.763 264.401 611.804 280C606.595 307.461 604.003 335.931 597 363L639 363C643.003 363 651.065 364.523 654.411 361.972C657.446 359.658 657.381 352.468 657.87 349C659.475 337.606 662.003 326.345 663.919 315C670.824 274.104 695.566 208.645 656 177.518C629.721 156.844 586.541 161.196 558 174.309C551.562 177.266 545.487 180.97 540 185.465C537.363 187.625 534.496 191.625 531 192.323C526.523 193.217 519.654 187.388 516 185.2C503.982 178.004 491.937 169.415 479 164M881 355L890 304C876.388 313.306 865.291 321.607 849 325.845C823.899 332.375 790.909 329.999 772.174 309.961C741.509 277.164 769.089 228.184 803 211.27C818.314 203.632 836.032 200.9 853 202.09C874.313 203.583 886.653 215.485 903 227L912 175C849.034 154.512 769.088 160.628 723.286 214C694.302 247.774 688.512 304.464 721.089 337.961C738.371 355.729 764.59 365.239 789 366.91C821.063 369.106 850.032 362.164 881 355M1119 304C1109.59 307.562 1101.32 314.126 1092 318.127C1060.21 331.778 995.109 343.71 976.518 303C974.245 298.02 969.919 285.288 974.603 280.603C977.479 277.728 984.306 279 988 279L1025 279L1097 279C1105.05 279 1119.4 281.793 1126.72 278.397C1131.68 276.096 1132.79 262.86 1133.56 258C1137.05 235.895 1135.01 211.749 1121.79 193C1104.26 168.122 1074.09 164 1046 164C1011.81 164 978.001 176.56 953.039 200.17C920.238 231.195 905.112 289.353 930.865 329C958.614 371.72 1021.62 372.274 1066 363.4C1078.11 360.978 1101.8 357.37 1110.14 347.363C1112.67 344.327 1112.65 338.745 1113.4 335C1115.45 324.709 1117.06 314.319 1119 304M1179 164C1178.73 197 1169.87 230.584 1164.44 263C1158.88 296.111 1155.03 330.396 1147 363L1190 363C1193.72 363 1202.34 364.588 1204.99 361.397C1210.08 355.272 1209.47 337.843 1211 330C1214.56 311.799 1218.23 293.352 1220.87 275C1222.83 261.335 1223.96 245.095 1231.02 233C1246.58 206.337 1299.86 186.155 1315.65 224C1324.23 244.546 1312.88 273.092 1309.87 294C1306.56 316.982 1299.83 339.841 1298 363L1356 363C1359.23 322.142 1371.42 281.635 1377 241C1380.35 216.574 1374.95 189.454 1353 175.101C1326.11 157.516 1285.95 161.412 1258 174.309C1249.62 178.176 1239.4 190.825 1231 192.273C1226.46 193.057 1219.75 187.005 1216 184.85C1204.06 177.997 1191.93 168.732 1179 164z"/>
<path style="fill:#ffffff; stroke:none;" d="M279 245L381 245C382.373 234.135 382.409 222.74 376.521 213C366.401 196.261 341.172 194.119 324 199.04C301.665 205.441 286.057 223.349 279 245M980 245L1025 245L1065 245C1068.93 245 1077.15 246.544 1080.4 243.972C1083.06 241.859 1082.01 235.973 1082 233C1081.94 221.126 1077.32 209.72 1067 203.133C1036.4 183.61 983.698 208.853 980 245z"/>
</svg>
