<?xml version="1.0" standalone="yes"?>
<svg xmlns="http://www.w3.org/2000/svg" width="1056" height="808">
<path style="fill:#2551cd; stroke:none;" d="M30 192L25 219L92 219L86.0841 254L64 380L90 380C92.9988 380 97.8683 380.874 100.436 378.972C105.98 374.866 106.251 354.631 107.275 348C111.716 319.23 118.283 290.761 122.725 262C124.223 252.303 126.298 242.705 127.728 233C128.299 229.13 128.215 223.382 131.433 220.603C134.819 217.68 141.85 219 146 219L182 219C185.942 219 195.167 220.699 198.012 217.397C200.593 214.4 204.612 194.61 200.667 192.603C197.152 190.815 190.854 191.999 187 192L153 192C112.734 192 70.0429 196.473 30 192M960 217L955.919 242L952.567 250.972L941 252L912 252C914.704 258.395 922.53 272.652 929.174 275.397C934.808 277.724 943.95 276 950 276C943.851 300.959 939.792 327.551 936.131 353C935.354 358.4 929.631 373.867 933.042 378.397C934.689 380.583 938.631 379.995 941 380C946.512 380.011 966.484 382.975 969.411 377.566C973.985 369.117 973.703 354.471 975.286 345C979.024 322.619 986.812 298.7 987 276L1034 276L1016 260L981 231.919L960 217M276 342C267.339 344.741 259.645 350.383 251 353.459C223.357 363.295 181 361.376 181 324L283 324C286.191 310.08 289.159 296.15 284.958 282C277.66 257.423 254.556 248.971 231 249C192.512 249.047 153.987 272.102 146.46 312C145.109 319.162 144.443 326.723 145.171 334C149.242 374.721 188.53 382.013 222 382C234.898 381.995 261.011 379.634 270.272 369.362C275.184 363.913 275.095 349.127 276 342M317 250L308.916 303L296 380L333 380C336.968 360.764 340.088 341.335 343.576 322C345.4 311.883 345.611 300.671 351.789 292C363.847 275.081 400.302 264.199 407.1 292C409.923 303.543 405.612 317.623 403.211 329C399.721 345.537 398.58 362.702 394 379L432 380C433.632 371.337 435.083 362.665 436.615 354C442.324 321.701 462.994 266.335 420 251.545C404.459 246.199 383.67 248.753 369 255.63C363.262 258.321 355.979 266.217 350 267.007C340.233 268.298 326.414 252.979 317 250M586 342C575.717 348.347 567.217 354.245 555 356.246C546.662 357.612 539.316 357.543 531 356.076C503.05 351.148 493.625 323.095 507.312 300C523.679 272.385 572.695 262.162 594 290C598.403 283.592 598.469 272.6 599.579 265C599.991 262.177 601.111 258.082 598.593 255.934C588.078 246.969 561.705 248.211 549 249.714C507.565 254.619 465.839 274.31 461.171 321C456.357 369.141 507.95 386.739 547 381.424C554.935 380.344 574.643 379.878 580.012 373.298C584.665 367.594 585.685 349.322 586 342M737 342C730.614 343.878 725.165 348.03 719 350.548C696.698 359.655 654.11 367.312 642.479 338C634.571 318.069 664.285 324 676 324L722 324C727.522 324 736.653 325.748 741.721 323.397C745.878 321.468 745.936 313.879 746.586 310C748.945 295.939 747.444 281.196 739.455 269C726.862 249.775 701.765 247.755 681 249.831C632.578 254.673 582.507 309.357 614.244 358C631.867 385.011 674.785 386.024 703 379.65C711.24 377.789 724.493 375.988 730.486 369.468C735.719 363.774 735.597 349.444 737 342M777 249L769.435 302L756 379C764.28 381.447 774.393 380.001 783 380C786.017 380 790.835 380.843 793.142 378.397C796.776 374.545 796.311 364.084 797.424 359C801.662 339.647 800.299 310.826 811.105 294C821.79 277.363 855.848 263.283 866.633 288C872.443 301.314 865.672 322.362 862.789 336C859.785 350.213 858.399 364.885 855 379C863.28 381.447 873.393 380.001 882 380C884.818 380 889.046 380.715 891.486 378.972C896.633 375.297 896.761 357.096 897.996 351C903.026 326.178 917.385 283.308 897.815 262.04C881.469 244.276 850.147 246.706 830 255.503C824.395 257.951 816.187 267.302 810.576 267.547C807.133 267.697 802.812 263.879 800 262.201C792.537 257.748 784.943 252.471 777 249z"/>
<path style="fill:#ffffff; stroke:none;" d="M645 302L713 302C714.964 276.215 693.515 263.874 670 273.475C657.635 278.524 649.202 289.66 645 302M185 302L252 302C255.131 277.091 234.728 265.565 212 272.573C198.9 276.612 188.14 288.786 185 302z"/>
<path style="fill:#2551cd; stroke:none;" d="M920 474L919 480C937.935 481.666 928.607 502.829 926 515C920.351 541.374 914.336 567.754 908.116 594C906.778 599.643 899.661 617.354 903.067 622.297C907.239 628.351 917.676 618.717 924 621.147C971.961 639.573 1007.1 581.39 995.51 539C989.982 518.775 968.084 516.924 953 527.927C946.437 532.715 941.455 539.078 936 545L953 473L920 474M69 480L69 486C80.5733 489.946 82.4724 505.657 85.4213 516C89.5566 530.505 97.1649 546.985 98.365 562C99.2827 573.482 93.8071 588.905 90.8449 600C89.6292 604.554 88.1421 609.401 84.7863 612.867C80.9122 616.867 76.4838 616.773 76 623L109 623C114.843 623 120.443 624.15 121 617C102.477 615.319 113.036 589.554 115.65 578C122.12 549.408 149.052 523.641 167.2 501C172.755 494.07 183.331 488.316 186 480C177.296 480 145.829 475.364 145 486C155.044 489.455 151.09 498.091 146.771 505C137.275 520.191 125.717 535.459 114 549C111.7 531.931 98.148 511.277 101.229 494.001C102.338 487.786 109.062 485.999 111 480L69 480M390 516C406.237 516 403.814 503.309 415.015 494.394C422.15 488.714 431.47 490 440 490C437.45 522.046 426.448 555.628 419.35 587C416.81 598.222 415.7 614.518 402 617L401 623L446 623L447 617C430.38 615.492 437 596.974 439.424 586C446.312 554.814 457.467 521.831 460 490C466.33 490 476.241 488.136 481.956 491.179C490.142 495.538 489 509.203 489 517L500 517L508 480L428 480C421.355 480 404.044 476.891 398.728 481.028C396.144 483.038 396.016 488.056 395.35 491C393.481 499.259 391.13 507.61 390 516M701 480L700 485C716.214 491.599 708.402 509.519 705.424 523C699.58 549.46 695.415 577.068 687.561 603C684.928 611.693 675.306 615.025 674 623L738 623L762.437 621.972L766.626 611L774 582C757.652 577.168 756.797 600.14 745.961 608.211C735.504 615.998 718.269 613 706 613C708.612 581.025 720.257 548.465 726.6 517C728.82 505.992 730.317 489.313 743 486L744 480L701 480M205 521.439C176.555 525.882 160.9 551.195 157.289 578C153.465 606.384 167.955 629.019 199 624.572C229.005 620.273 244.057 594.13 247.711 566C251.413 537.494 234.705 516.8 205 521.439M852 598L853 598L848 623L878 623L879 617C865.373 615.764 867.81 604.042 870.119 594C875.62 570.075 881.455 546.123 886 522C878.8 521.096 874.188 526.282 868 525.778C853.559 524.601 843.064 517.518 828 523.876C803.317 534.294 792.546 560.95 790.911 586C790.28 595.673 790.463 606.549 795.969 614.996C811.597 638.972 843.182 615.702 852 598M328 598L329 598L324 623C331.829 623 354.209 627.15 355 617C341.032 615.733 344.381 604.073 346.4 594C351.144 570.321 356.225 546.442 362 523C357.247 521.595 345.511 519.84 342.703 525.228C332.921 543.997 337.516 568.295 325.934 587C321.188 594.666 297.847 625.458 289.894 604.995C284.918 592.195 293.235 572.554 296.373 560C299.431 547.77 304.45 534.619 305 522C298.213 522 277.466 518.553 272.623 523.599C269.781 526.559 282.461 534.213 281.829 541C280.226 558.212 273.26 574.909 270.59 592C269.333 600.048 268.635 611.047 273.803 617.907C289.462 638.691 320.254 613.551 328 598M559 598L560 598L555 623C562.829 623 585.209 627.15 586 617C572.032 615.733 575.381 604.073 577.4 594C582.144 570.321 587.225 546.442 593 523C588.247 521.595 576.511 519.84 573.703 525.228C563.922 543.997 568.516 568.295 556.934 587C552.188 594.665 528.847 625.458 520.893 604.995C515.918 592.195 524.235 572.554 527.373 560C530.431 547.77 535.45 534.619 536 522L512 522C509.466 522.001 504.958 521.239 503.198 523.599C500.678 526.979 513.486 533.938 512.829 541C511.226 558.212 504.26 574.909 501.59 592C500.333 600.048 499.635 611.047 504.803 617.907C520.462 638.691 551.254 613.551 559 598z"/>
<path style="fill:#ffffff; stroke:none;" d="M208 530.464C184.385 534.714 176.033 569.64 176 590C175.979 603.131 179.06 617.941 196 615.696C220.286 612.478 228.762 575.327 228.996 555C229.148 541.775 224.093 527.568 208 530.464M842 530.468C819.617 534.696 810.238 566.303 810.004 586C809.879 596.483 809.946 613.309 825 611.091C847.625 607.758 857.642 572.727 860.561 554C862.728 540.095 858.451 527.36 842 530.468M962 534.53C940.283 539.437 929.771 571.89 927.289 591C925.499 604.785 929.036 618.619 946 615.191C969.092 610.526 976.544 578.979 977.911 559C978.616 548.695 976.314 531.296 962 534.53M329 597L330 598L329 597M560 597L561 598L560 597z"/>
</svg>
